<svg xmlns="http://www.w3.org/2000/svg" width="228" height="48" viewBox="0 0 228 48">
    <defs>
        <style>
            .cls-2{fill:#0933b3}
        </style>
    </defs>
    <g id="그룹_4869" transform="translate(-846 -197)">
        <path id="사각형_4370" fill="none" d="M0 0h209v39.9H0z" opacity="0.311" transform="translate(846 198.204)"/>
        <g id="그룹_70673" transform="translate(846 203.9)">
            <g id="그룹_6" transform="translate(0 0.041)">
                <path id="패스_1" d="M-477.453 304.071c0 6.045-4.853 9.994-10.856 9.994h-14.123v-34.127h13.163c5.86 0 10.615 3.851 10.615 9.747a8.6 8.6 0 0 1-2.93 6.68 8.845 8.845 0 0 1 4.131 7.706zm-17.293-16.819v6.048h5.476a2.815 2.815 0 0 0 2.119-.859 2.9 2.9 0 0 0 .811-2.165 2.877 2.877 0 0 0-.8-2.174 2.789 2.789 0 0 0-2.128-.85zm9.6 16.236a3.108 3.108 0 0 0-.868-2.35 3.014 3.014 0 0 0-2.3-.916h-6.436v6.533h6.436a3.014 3.014 0 0 0 2.3-.916 3.109 3.109 0 0 0 .868-2.352z" class="cls-2" transform="translate(502.433 -279.256)"/>
                <path id="패스_2" d="M-344.992 306.557v7.507h-19.7v-34.126H-357v26.619z" class="cls-2" transform="translate(431.367 -279.256)"/>
                <path id="패스_3" d="M-303.979 287.447h-8.647v26.619h-7.687v-26.619h-8.647v-7.509h24.98z" class="cls-2" transform="translate(412.933 -279.256)"/>
                <path id="패스_4" d="M-254.665 314.6l-2.979-3.264a14.781 14.781 0 0 1-8.694 2.674c-6.917 0-12.009-3.848-12.009-10.28a11.583 11.583 0 0 1 5.38-9.791 10.467 10.467 0 0 1-1.393-5.406c0-5.748 4.371-9.986 10.809-9.986A11.421 11.421 0 0 1-252.5 286l-6.581 3.848c-.864-2.292-2.209-3.7-4.371-3.7a2.89 2.89 0 0 0-2.227.719 2.975 2.975 0 0 0-.992 2.146c0 1.9 1.153 3.166 2.636 4.822l6.2 6.967a26.055 26.055 0 0 0 1.586-5.359l6.436 3.7a25.184 25.184 0 0 1-3.075 7.161l4.228 4.774zm-7.687-8.477l-6.148-6.723-.288-.292a4.831 4.831 0 0 0-1.778 3.8c0 2.292 1.44 4 4.851 4a6.992 6.992 0 0 0 3.365-.781z" class="cls-2" transform="translate(386.823 -278.544)"/>
                <path id="패스_5" d="M-182.652 279.938v34.128h-5.764l-12.984-18.529v18.525h-7.687v-34.124h5.764l12.969 18.527v-18.527z" class="cls-2" transform="translate(351.08 -279.256)"/>
                <path id="패스_6" d="M-58.06 287.447h-8.647v26.619h-7.687v-26.619h-8.646v-7.509h24.98z" class="cls-2" transform="translate(286.06 -279.256)"/>
                <g id="그룹_1" transform="translate(173.828 0.931)">
                    <path id="패스_7" d="M-132.7 306.856a4.429 4.429 0 0 1-2.661-4.063v-22.34h-7.981v23.137A11.18 11.18 0 0 0-132.7 314.8z" class="cls-2" transform="translate(143.344 -280.453)"/>
                    <path id="패스_8" d="M-108.226 280.453v22.338a4.417 4.417 0 0 1-3.143 4.235v7.774a11.18 11.18 0 0 0 10.64-11.21v-23.137z" class="cls-2" transform="translate(126.846 -280.453)"/>
                </g>
            </g>
            <g id="그룹_7" transform="translate(27.256 0)">
                <path id="패스_9" d="M-423.736 313.2a9.861 9.861 0 0 1-4.958 1.337 9.915 9.915 0 0 1-9.915-9.915 9.862 9.862 0 0 1 .864-4.037l-5.732-5.162a17.326 17.326 0 0 0-2.636 9.2 17.411 17.411 0 0 0 17.413 17.41 17.324 17.324 0 0 0 10.691-3.674z" class="cls-2" transform="translate(446.113 -286.703)"/>
                <path id="패스_10" d="M-427.616 287.643a9.868 9.868 0 0 1 5.536-1.695 9.915 9.915 0 0 1 9.915 9.915 9.866 9.866 0 0 1-1.158 4.644l5.67 5.105a17.324 17.324 0 0 0 2.985-9.749 17.411 17.411 0 0 0-17.411-17.411 17.339 17.339 0 0 0-11.2 4.085z" class="cls-2" transform="translate(439.496 -278.451)"/>
            </g>
        </g>
        <path id="패스_1-2" d="M-477.453 304.071c0 6.045-4.853 9.994-10.856 9.994h-14.123v-34.127h13.163c5.86 0 10.615 3.851 10.615 9.747a8.6 8.6 0 0 1-2.93 6.68 8.845 8.845 0 0 1 4.131 7.706zm-17.293-16.819v6.048h5.476a2.815 2.815 0 0 0 2.119-.859 2.9 2.9 0 0 0 .811-2.165 2.877 2.877 0 0 0-.8-2.174 2.789 2.789 0 0 0-2.128-.85zm9.6 16.236a3.108 3.108 0 0 0-.868-2.35 3.014 3.014 0 0 0-2.3-.916h-6.436v6.533h6.436a3.014 3.014 0 0 0 2.3-.916 3.109 3.109 0 0 0 .868-2.352z" class="cls-2" transform="translate(1348.433 -75.314)"/>
        <path id="패스_2-2" d="M-344.992 306.557v7.507h-19.7v-34.126H-357v26.619z" class="cls-2" transform="translate(1277.367 -75.314)"/>
        <path id="패스_3-2" d="M-303.979 287.447h-8.647v26.619h-7.687v-26.619h-8.647v-7.509h24.98z" class="cls-2" transform="translate(1258.933 -75.314)"/>
        <path id="패스_4-2" d="M-254.665 314.6l-2.979-3.264a14.781 14.781 0 0 1-8.694 2.674c-6.917 0-12.009-3.848-12.009-10.28a11.583 11.583 0 0 1 5.38-9.791 10.467 10.467 0 0 1-1.393-5.406c0-5.748 4.371-9.986 10.809-9.986A11.421 11.421 0 0 1-252.5 286l-6.581 3.848c-.864-2.292-2.209-3.7-4.371-3.7a2.89 2.89 0 0 0-2.227.719 2.975 2.975 0 0 0-.992 2.146c0 1.9 1.153 3.166 2.636 4.822l6.2 6.967a26.055 26.055 0 0 0 1.586-5.359l6.436 3.7a25.184 25.184 0 0 1-3.075 7.161l4.228 4.774zm-7.687-8.477l-6.148-6.723-.288-.292a4.831 4.831 0 0 0-1.778 3.8c0 2.292 1.44 4 4.851 4a6.992 6.992 0 0 0 3.365-.781z" class="cls-2" transform="translate(1232.823 -74.602)"/>
        <path id="패스_5-2" d="M-182.652 279.938v34.128h-5.764l-12.984-18.529v18.525h-7.687v-34.124h5.764l12.969 18.527v-18.527z" class="cls-2" transform="translate(1197.08 -75.315)"/>
        <path id="패스_6-2" d="M-58.06 287.447h-8.647v26.619h-7.687v-26.619h-8.646v-7.509h24.98z" class="cls-2" transform="translate(1132.06 -75.314)"/>
        <g id="그룹_1-2" transform="translate(1019.828 204.872)">
            <path id="패스_7-2" d="M-132.7 306.856a4.429 4.429 0 0 1-2.661-4.063v-22.34h-7.981v23.137A11.18 11.18 0 0 0-132.7 314.8z" class="cls-2" transform="translate(143.344 -280.453)"/>
            <path id="패스_8-2" d="M-108.226 280.453v22.338a4.417 4.417 0 0 1-3.143 4.235v7.774a11.18 11.18 0 0 0 10.64-11.21v-23.137z" class="cls-2" transform="translate(126.846 -280.453)"/>
        </g>
        <path id="사각형_5999" fill="none" d="M0 0H228V48H0z" transform="translate(846 197)"/>
    </g>
</svg>
